<mxfile host="app.diagrams.net" agent="Mozilla/5.0 (Windows NT 10.0; Win64; x64) AppleWebKit/537.36 (KHTML, like Gecko) Chrome/131.0.0.0 Safari/537.36 Edg/131.0.0.0" version="25.0.1">
  <diagram name="Страница — 1" id="EpeRPUm540Z-6eJpna7Y">
    <mxGraphModel dx="2736" dy="1036" grid="1" gridSize="10" guides="1" tooltips="1" connect="1" arrows="1" fold="1" page="1" pageScale="1" pageWidth="827" pageHeight="1169" math="0" shadow="0">
      <root>
        <mxCell id="0" />
        <mxCell id="1" parent="0" />
        <mxCell id="tpyfcuKao7ZbU-i8zmCS-1" value="Турагентство" style="swimlane;whiteSpace=wrap;html=1;" vertex="1" parent="1">
          <mxGeometry x="-581" y="30" width="800" height="780" as="geometry" />
        </mxCell>
        <mxCell id="tpyfcuKao7ZbU-i8zmCS-6" value="Сохранить ваучер" style="ellipse;whiteSpace=wrap;html=1;fillColor=#1ba1e2;fontColor=#ffffff;strokeColor=#006EAF;" vertex="1" parent="tpyfcuKao7ZbU-i8zmCS-1">
          <mxGeometry x="47" y="60" width="120" height="50" as="geometry" />
        </mxCell>
        <mxCell id="tpyfcuKao7ZbU-i8zmCS-7" value="Оставить отзыв об отеле" style="ellipse;whiteSpace=wrap;html=1;fillColor=#1ba1e2;fontColor=#ffffff;strokeColor=#006EAF;" vertex="1" parent="tpyfcuKao7ZbU-i8zmCS-1">
          <mxGeometry x="60" y="150" width="160" height="50" as="geometry" />
        </mxCell>
        <mxCell id="tpyfcuKao7ZbU-i8zmCS-8" value="Выбрать дополнительные услуги" style="ellipse;whiteSpace=wrap;html=1;fillColor=#1ba1e2;fontColor=#ffffff;strokeColor=#006EAF;" vertex="1" parent="tpyfcuKao7ZbU-i8zmCS-1">
          <mxGeometry x="239" y="70" width="200" height="60" as="geometry" />
        </mxCell>
        <mxCell id="tpyfcuKao7ZbU-i8zmCS-9" value="Зарегистрировать заявку" style="ellipse;whiteSpace=wrap;html=1;fillColor=#1ba1e2;fontColor=#ffffff;strokeColor=#006EAF;" vertex="1" parent="tpyfcuKao7ZbU-i8zmCS-1">
          <mxGeometry x="527" y="70" width="200" height="60" as="geometry" />
        </mxCell>
        <mxCell id="tpyfcuKao7ZbU-i8zmCS-10" value="Сформировать ваучер" style="ellipse;whiteSpace=wrap;html=1;fillColor=#1ba1e2;fontColor=#ffffff;strokeColor=#006EAF;" vertex="1" parent="tpyfcuKao7ZbU-i8zmCS-1">
          <mxGeometry x="401" y="190" width="180" height="50" as="geometry" />
        </mxCell>
        <mxCell id="tpyfcuKao7ZbU-i8zmCS-11" value="Получить информацию по заявке" style="ellipse;whiteSpace=wrap;html=1;fillColor=#1ba1e2;fontColor=#ffffff;strokeColor=#006EAF;" vertex="1" parent="tpyfcuKao7ZbU-i8zmCS-1">
          <mxGeometry x="271.5" y="363" width="245" height="50" as="geometry" />
        </mxCell>
        <mxCell id="tpyfcuKao7ZbU-i8zmCS-12" value="Создать новый тур" style="ellipse;whiteSpace=wrap;html=1;fillColor=#1ba1e2;fontColor=#ffffff;strokeColor=#006EAF;" vertex="1" parent="tpyfcuKao7ZbU-i8zmCS-1">
          <mxGeometry x="42" y="540" width="130" height="55" as="geometry" />
        </mxCell>
        <mxCell id="tpyfcuKao7ZbU-i8zmCS-13" value="Редактировать тур" style="ellipse;whiteSpace=wrap;html=1;fillColor=#1ba1e2;fontColor=#ffffff;strokeColor=#006EAF;" vertex="1" parent="tpyfcuKao7ZbU-i8zmCS-1">
          <mxGeometry x="47" y="650" width="130" height="50" as="geometry" />
        </mxCell>
        <mxCell id="tpyfcuKao7ZbU-i8zmCS-14" value="Зарегистрировать клиента" style="ellipse;whiteSpace=wrap;html=1;fillColor=#1ba1e2;fontColor=#ffffff;strokeColor=#006EAF;" vertex="1" parent="tpyfcuKao7ZbU-i8zmCS-1">
          <mxGeometry x="571" y="443" width="180" height="60" as="geometry" />
        </mxCell>
        <mxCell id="tpyfcuKao7ZbU-i8zmCS-15" value="Выбрать отель" style="ellipse;whiteSpace=wrap;html=1;fillColor=#1ba1e2;fontColor=#ffffff;strokeColor=#006EAF;" vertex="1" parent="tpyfcuKao7ZbU-i8zmCS-1">
          <mxGeometry x="332" y="500" width="120" height="55" as="geometry" />
        </mxCell>
        <mxCell id="tpyfcuKao7ZbU-i8zmCS-16" value="Выбрать даты тура" style="ellipse;whiteSpace=wrap;html=1;fillColor=#1ba1e2;fontColor=#ffffff;strokeColor=#006EAF;" vertex="1" parent="tpyfcuKao7ZbU-i8zmCS-1">
          <mxGeometry x="359" y="570" width="150" height="52" as="geometry" />
        </mxCell>
        <mxCell id="tpyfcuKao7ZbU-i8zmCS-17" value="Указать предпочтения клиента" style="ellipse;whiteSpace=wrap;html=1;fillColor=#1ba1e2;fontColor=#ffffff;strokeColor=#006EAF;" vertex="1" parent="tpyfcuKao7ZbU-i8zmCS-1">
          <mxGeometry x="314" y="641" width="190" height="52" as="geometry" />
        </mxCell>
        <mxCell id="tpyfcuKao7ZbU-i8zmCS-18" value="Указать границы стоимости" style="ellipse;whiteSpace=wrap;html=1;fillColor=#1ba1e2;fontColor=#ffffff;strokeColor=#006EAF;" vertex="1" parent="tpyfcuKao7ZbU-i8zmCS-1">
          <mxGeometry x="312" y="707" width="190" height="45" as="geometry" />
        </mxCell>
        <mxCell id="tpyfcuKao7ZbU-i8zmCS-19" value="Подобрать тур" style="ellipse;whiteSpace=wrap;html=1;fillColor=#1ba1e2;fontColor=#ffffff;strokeColor=#006EAF;" vertex="1" parent="tpyfcuKao7ZbU-i8zmCS-1">
          <mxGeometry x="597" y="633" width="140" height="45" as="geometry" />
        </mxCell>
        <mxCell id="tpyfcuKao7ZbU-i8zmCS-37" value="" style="endArrow=none;dashed=1;html=1;rounded=0;exitX=1;exitY=0.5;exitDx=0;exitDy=0;entryX=0;entryY=0.5;entryDx=0;entryDy=0;" edge="1" parent="tpyfcuKao7ZbU-i8zmCS-1" source="tpyfcuKao7ZbU-i8zmCS-18" target="tpyfcuKao7ZbU-i8zmCS-19">
          <mxGeometry width="50" height="50" relative="1" as="geometry">
            <mxPoint x="540" y="580" as="sourcePoint" />
            <mxPoint x="590" y="530" as="targetPoint" />
          </mxGeometry>
        </mxCell>
        <mxCell id="tpyfcuKao7ZbU-i8zmCS-46" value="Включает" style="edgeLabel;html=1;align=center;verticalAlign=middle;resizable=0;points=[];" vertex="1" connectable="0" parent="tpyfcuKao7ZbU-i8zmCS-37">
          <mxGeometry x="-0.179" y="3" relative="1" as="geometry">
            <mxPoint as="offset" />
          </mxGeometry>
        </mxCell>
        <mxCell id="tpyfcuKao7ZbU-i8zmCS-38" value="" style="endArrow=none;dashed=1;html=1;rounded=0;exitX=1;exitY=0.5;exitDx=0;exitDy=0;entryX=0;entryY=0.5;entryDx=0;entryDy=0;" edge="1" parent="tpyfcuKao7ZbU-i8zmCS-1" source="tpyfcuKao7ZbU-i8zmCS-17" target="tpyfcuKao7ZbU-i8zmCS-19">
          <mxGeometry width="50" height="50" relative="1" as="geometry">
            <mxPoint x="540" y="580" as="sourcePoint" />
            <mxPoint x="590" y="530" as="targetPoint" />
          </mxGeometry>
        </mxCell>
        <mxCell id="tpyfcuKao7ZbU-i8zmCS-44" value="Включает" style="edgeLabel;html=1;align=center;verticalAlign=middle;resizable=0;points=[];" vertex="1" connectable="0" parent="tpyfcuKao7ZbU-i8zmCS-38">
          <mxGeometry x="-0.2484" y="-1" relative="1" as="geometry">
            <mxPoint as="offset" />
          </mxGeometry>
        </mxCell>
        <mxCell id="tpyfcuKao7ZbU-i8zmCS-39" value="" style="endArrow=none;dashed=1;html=1;rounded=0;exitX=1;exitY=0.5;exitDx=0;exitDy=0;entryX=0;entryY=0.5;entryDx=0;entryDy=0;" edge="1" parent="tpyfcuKao7ZbU-i8zmCS-1" source="tpyfcuKao7ZbU-i8zmCS-16" target="tpyfcuKao7ZbU-i8zmCS-19">
          <mxGeometry width="50" height="50" relative="1" as="geometry">
            <mxPoint x="540" y="580" as="sourcePoint" />
            <mxPoint x="590" y="530" as="targetPoint" />
          </mxGeometry>
        </mxCell>
        <mxCell id="tpyfcuKao7ZbU-i8zmCS-43" value="Включает" style="edgeLabel;html=1;align=center;verticalAlign=middle;resizable=0;points=[];" vertex="1" connectable="0" parent="tpyfcuKao7ZbU-i8zmCS-39">
          <mxGeometry x="-0.0441" y="2" relative="1" as="geometry">
            <mxPoint as="offset" />
          </mxGeometry>
        </mxCell>
        <mxCell id="tpyfcuKao7ZbU-i8zmCS-41" value="" style="endArrow=none;dashed=1;html=1;rounded=0;exitX=1;exitY=0.5;exitDx=0;exitDy=0;entryX=0;entryY=0;entryDx=0;entryDy=0;strokeColor=default;" edge="1" parent="tpyfcuKao7ZbU-i8zmCS-1" source="tpyfcuKao7ZbU-i8zmCS-15" target="tpyfcuKao7ZbU-i8zmCS-19">
          <mxGeometry width="50" height="50" relative="1" as="geometry">
            <mxPoint x="540" y="580" as="sourcePoint" />
            <mxPoint x="590" y="530" as="targetPoint" />
          </mxGeometry>
        </mxCell>
        <mxCell id="tpyfcuKao7ZbU-i8zmCS-42" value="Включает" style="edgeLabel;html=1;align=center;verticalAlign=middle;resizable=0;points=[];" vertex="1" connectable="0" parent="tpyfcuKao7ZbU-i8zmCS-41">
          <mxGeometry x="-0.0102" y="-1" relative="1" as="geometry">
            <mxPoint as="offset" />
          </mxGeometry>
        </mxCell>
        <mxCell id="tpyfcuKao7ZbU-i8zmCS-47" value="" style="endArrow=classic;startArrow=classic;html=1;rounded=0;entryX=0;entryY=0.5;entryDx=0;entryDy=0;exitX=1;exitY=0.5;exitDx=0;exitDy=0;" edge="1" parent="tpyfcuKao7ZbU-i8zmCS-1" source="tpyfcuKao7ZbU-i8zmCS-8" target="tpyfcuKao7ZbU-i8zmCS-9">
          <mxGeometry width="50" height="50" relative="1" as="geometry">
            <mxPoint x="430" y="140" as="sourcePoint" />
            <mxPoint x="480" y="90" as="targetPoint" />
          </mxGeometry>
        </mxCell>
        <mxCell id="tpyfcuKao7ZbU-i8zmCS-48" value="Расширяет" style="edgeLabel;html=1;align=center;verticalAlign=middle;resizable=0;points=[];" vertex="1" connectable="0" parent="tpyfcuKao7ZbU-i8zmCS-47">
          <mxGeometry x="-0.028" y="-2" relative="1" as="geometry">
            <mxPoint as="offset" />
          </mxGeometry>
        </mxCell>
        <mxCell id="tpyfcuKao7ZbU-i8zmCS-2" value="Клиент" style="shape=umlActor;verticalLabelPosition=bottom;verticalAlign=top;html=1;outlineConnect=0;" vertex="1" parent="1">
          <mxGeometry x="-680" y="80" width="70" height="120" as="geometry" />
        </mxCell>
        <mxCell id="tpyfcuKao7ZbU-i8zmCS-3" value="Администратор" style="shape=umlActor;verticalLabelPosition=bottom;verticalAlign=top;html=1;outlineConnect=0;" vertex="1" parent="1">
          <mxGeometry x="-690" y="590" width="70" height="120" as="geometry" />
        </mxCell>
        <mxCell id="tpyfcuKao7ZbU-i8zmCS-4" value="Менеджер&lt;div&gt;&lt;br&gt;&lt;/div&gt;" style="shape=umlActor;verticalLabelPosition=bottom;verticalAlign=top;html=1;outlineConnect=0;fillColor=none;fontColor=#000000;strokeColor=#000000;gradientColor=default;shadow=0;strokeWidth=1;" vertex="1" parent="1">
          <mxGeometry x="250" y="330" width="70" height="120" as="geometry" />
        </mxCell>
        <mxCell id="tpyfcuKao7ZbU-i8zmCS-27" value="" style="endArrow=none;html=1;rounded=0;entryX=0;entryY=0.5;entryDx=0;entryDy=0;exitX=0.5;exitY=0.5;exitDx=0;exitDy=0;exitPerimeter=0;" edge="1" parent="1" source="tpyfcuKao7ZbU-i8zmCS-3" target="tpyfcuKao7ZbU-i8zmCS-12">
          <mxGeometry width="50" height="50" relative="1" as="geometry">
            <mxPoint x="-656" y="650" as="sourcePoint" />
            <mxPoint x="-462" y="460" as="targetPoint" />
          </mxGeometry>
        </mxCell>
        <mxCell id="tpyfcuKao7ZbU-i8zmCS-28" value="" style="endArrow=none;html=1;rounded=0;entryX=0;entryY=0.5;entryDx=0;entryDy=0;exitX=0.5;exitY=0.5;exitDx=0;exitDy=0;exitPerimeter=0;" edge="1" parent="1" source="tpyfcuKao7ZbU-i8zmCS-3" target="tpyfcuKao7ZbU-i8zmCS-13">
          <mxGeometry width="50" height="50" relative="1" as="geometry">
            <mxPoint x="-650" y="650" as="sourcePoint" />
            <mxPoint x="-600" y="600" as="targetPoint" />
          </mxGeometry>
        </mxCell>
        <mxCell id="tpyfcuKao7ZbU-i8zmCS-29" value="" style="endArrow=none;html=1;rounded=0;exitX=0.5;exitY=0.5;exitDx=0;exitDy=0;exitPerimeter=0;entryX=0;entryY=0.5;entryDx=0;entryDy=0;" edge="1" parent="1" source="tpyfcuKao7ZbU-i8zmCS-2" target="tpyfcuKao7ZbU-i8zmCS-6">
          <mxGeometry width="50" height="50" relative="1" as="geometry">
            <mxPoint x="-390" y="170" as="sourcePoint" />
            <mxPoint x="-340" y="120" as="targetPoint" />
          </mxGeometry>
        </mxCell>
        <mxCell id="tpyfcuKao7ZbU-i8zmCS-30" value="" style="endArrow=none;html=1;rounded=0;exitX=0.5;exitY=0.5;exitDx=0;exitDy=0;exitPerimeter=0;entryX=0;entryY=0.5;entryDx=0;entryDy=0;" edge="1" parent="1" source="tpyfcuKao7ZbU-i8zmCS-2" target="tpyfcuKao7ZbU-i8zmCS-7">
          <mxGeometry width="50" height="50" relative="1" as="geometry">
            <mxPoint x="-390" y="170" as="sourcePoint" />
            <mxPoint x="-340" y="120" as="targetPoint" />
          </mxGeometry>
        </mxCell>
        <mxCell id="tpyfcuKao7ZbU-i8zmCS-31" value="" style="endArrow=none;html=1;rounded=0;exitX=0.5;exitY=0.5;exitDx=0;exitDy=0;exitPerimeter=0;entryX=0;entryY=0.5;entryDx=0;entryDy=0;" edge="1" parent="1" source="tpyfcuKao7ZbU-i8zmCS-2" target="tpyfcuKao7ZbU-i8zmCS-11">
          <mxGeometry width="50" height="50" relative="1" as="geometry">
            <mxPoint x="-390" y="170" as="sourcePoint" />
            <mxPoint x="-330" y="370" as="targetPoint" />
          </mxGeometry>
        </mxCell>
        <mxCell id="tpyfcuKao7ZbU-i8zmCS-32" value="" style="endArrow=none;html=1;rounded=0;entryX=1;entryY=0.5;entryDx=0;entryDy=0;exitX=0.504;exitY=0.427;exitDx=0;exitDy=0;exitPerimeter=0;" edge="1" parent="1" source="tpyfcuKao7ZbU-i8zmCS-4" target="tpyfcuKao7ZbU-i8zmCS-9">
          <mxGeometry width="50" height="50" relative="1" as="geometry">
            <mxPoint x="200" y="360" as="sourcePoint" />
            <mxPoint x="250" y="310" as="targetPoint" />
          </mxGeometry>
        </mxCell>
        <mxCell id="tpyfcuKao7ZbU-i8zmCS-33" value="" style="endArrow=none;html=1;rounded=0;entryX=0.5;entryY=0.5;entryDx=0;entryDy=0;entryPerimeter=0;exitX=1;exitY=0.5;exitDx=0;exitDy=0;" edge="1" parent="1" source="tpyfcuKao7ZbU-i8zmCS-10" target="tpyfcuKao7ZbU-i8zmCS-4">
          <mxGeometry width="50" height="50" relative="1" as="geometry">
            <mxPoint x="130" y="280" as="sourcePoint" />
            <mxPoint x="180" y="230" as="targetPoint" />
          </mxGeometry>
        </mxCell>
        <mxCell id="tpyfcuKao7ZbU-i8zmCS-34" value="" style="endArrow=none;html=1;rounded=0;entryX=0.5;entryY=0.5;entryDx=0;entryDy=0;entryPerimeter=0;exitX=1;exitY=0.5;exitDx=0;exitDy=0;" edge="1" parent="1" source="tpyfcuKao7ZbU-i8zmCS-14" target="tpyfcuKao7ZbU-i8zmCS-4">
          <mxGeometry width="50" height="50" relative="1" as="geometry">
            <mxPoint x="130" y="280" as="sourcePoint" />
            <mxPoint x="180" y="230" as="targetPoint" />
          </mxGeometry>
        </mxCell>
        <mxCell id="tpyfcuKao7ZbU-i8zmCS-35" value="" style="endArrow=none;html=1;rounded=0;entryX=0.5;entryY=0.5;entryDx=0;entryDy=0;entryPerimeter=0;exitX=1;exitY=0.5;exitDx=0;exitDy=0;" edge="1" parent="1" source="tpyfcuKao7ZbU-i8zmCS-19" target="tpyfcuKao7ZbU-i8zmCS-4">
          <mxGeometry width="50" height="50" relative="1" as="geometry">
            <mxPoint x="130" y="590" as="sourcePoint" />
            <mxPoint x="180" y="540" as="targetPoint" />
          </mxGeometry>
        </mxCell>
        <mxCell id="tpyfcuKao7ZbU-i8zmCS-36" value="" style="endArrow=none;html=1;rounded=0;exitX=1;exitY=0.5;exitDx=0;exitDy=0;entryX=0.5;entryY=0.5;entryDx=0;entryDy=0;entryPerimeter=0;" edge="1" parent="1" source="tpyfcuKao7ZbU-i8zmCS-11" target="tpyfcuKao7ZbU-i8zmCS-4">
          <mxGeometry width="50" height="50" relative="1" as="geometry">
            <mxPoint x="-30" y="470" as="sourcePoint" />
            <mxPoint x="20" y="420" as="targetPoint" />
          </mxGeometry>
        </mxCell>
      </root>
    </mxGraphModel>
  </diagram>
</mxfile>
